<svg width="28" height="28" viewBox="0 0 28 28" fill="none" xmlns="http://www.w3.org/2000/svg">
<g clip-path="url(#clip0_5860_771)">
<path d="M15.9432 13.7609C15.9809 13.852 16.0002 13.9496 16.0002 14.0481C16.0003 14.2468 15.9214 14.4375 15.781 14.5782C15.6406 14.7188 15.4501 14.798 15.2514 14.7983H8.75024C8.65172 14.7983 8.55416 14.7789 8.46314 14.7412C8.37211 14.7035 8.28941 14.6483 8.21974 14.5786C8.15007 14.5089 8.09481 14.4262 8.05711 14.3352C8.0194 14.2442 8 14.1466 8 14.0481C8 13.9496 8.0194 13.852 8.05711 13.761C8.09481 13.67 8.15007 13.5873 8.21974 13.5176C8.28941 13.4479 8.37211 13.3927 8.46314 13.355C8.55416 13.3173 8.65172 13.2979 8.75024 13.2979H15.25C15.3485 13.2978 15.4461 13.3172 15.5371 13.3549C15.6281 13.3926 15.7109 13.4478 15.7805 13.5175C15.8502 13.5872 15.9055 13.6699 15.9432 13.7609Z" fill="#00A296"/>
</g>
<rect x="0.5" y="2.5" width="23" height="23" rx="11.5" stroke="#00A296"/>
<defs>
<clipPath id="clip0_5860_771">
<rect y="2" width="24" height="24" rx="12" fill="white"/>
</clipPath>
</defs>
</svg>
