<svg width="32" height="33" viewBox="0 0 32 33" fill="none" xmlns="http://www.w3.org/2000/svg">
<g clip-path="url(#clip0_2455_3133)">
<path d="M13.333 14.5001C13.5982 14.5001 13.8526 14.6054 14.0401 14.793C14.2276 14.9805 14.333 15.2349 14.333 15.5001V20.1667C14.333 20.432 14.2276 20.6863 14.0401 20.8739C13.8526 21.0614 13.5982 21.1667 13.333 21.1667C13.0678 21.1667 12.8134 21.0614 12.6259 20.8739C12.4384 20.6863 12.333 20.432 12.333 20.1667V15.5001C12.333 15.2349 12.4384 14.9805 12.6259 14.793C12.8134 14.6054 13.0678 14.5001 13.333 14.5001Z" fill="#00A296"/>
<path d="M18.6663 14.5001C18.9316 14.5001 19.1859 14.6054 19.3734 14.793C19.561 14.9805 19.6663 15.2349 19.6663 15.5001V20.1667C19.6663 20.432 19.561 20.6863 19.3734 20.8739C19.1859 21.0614 18.9316 21.1667 18.6663 21.1667C18.4011 21.1667 18.1468 21.0614 17.9592 20.8739C17.7717 20.6863 17.6663 20.432 17.6663 20.1667V15.5001C17.6663 15.2349 17.7717 14.9805 17.9592 14.793C18.1468 14.6054 18.4011 14.5001 18.6663 14.5001Z" fill="#00A296"/>
<path fill-rule="evenodd" clip-rule="evenodd" d="M11.3662 5.60586C10.419 6.32983 9.73901 7.34785 9.43301 8.5001H6.33301C6.06779 8.5001 5.81344 8.60545 5.6259 8.79299C5.43836 8.98053 5.33301 9.23488 5.33301 9.5001C5.33301 9.76531 5.43836 10.0197 5.6259 10.2072C5.81344 10.3947 6.06779 10.5001 6.33301 10.5001H7.33301V22.1668C7.33301 23.4928 7.85979 24.7646 8.79747 25.7023C9.73516 26.64 11.0069 27.1668 12.333 27.1668H19.6663C20.323 27.1668 20.9731 27.0374 21.5798 26.7862C22.1864 26.5349 22.7376 26.1666 23.2019 25.7023C23.6662 25.238 24.0345 24.6868 24.2857 24.0802C24.537 23.4736 24.6663 22.8234 24.6663 22.1668V10.5001H25.6663C25.9316 10.5001 26.1859 10.3947 26.3734 10.2072C26.561 10.0197 26.6663 9.76531 26.6663 9.5001C26.6663 9.23488 26.561 8.98053 26.3734 8.79299C26.1859 8.60545 25.9316 8.5001 25.6663 8.5001H22.233C22.0022 7.37085 21.3885 6.35596 20.4957 5.62709C19.6028 4.89822 18.4856 4.50011 17.333 4.5001H14.6663C13.4742 4.49295 12.3134 4.88188 11.3662 5.60586ZM12.9316 7.04944C12.4241 7.40766 12.0402 7.91451 11.833 8.5001H20.1623C19.9553 7.91516 19.5721 7.40876 19.0654 7.05059C18.5587 6.69243 17.9535 6.5001 17.333 6.5001H14.6663C14.0452 6.49928 13.439 6.69121 12.9316 7.04944ZM22.6663 10.5001H9.33301V22.1668C9.33301 22.9624 9.64908 23.7255 10.2117 24.2881C10.7743 24.8507 11.5374 25.1668 12.333 25.1668H19.6663C20.462 25.1668 21.2251 24.8507 21.7877 24.2881C22.3503 23.7255 22.6663 22.9624 22.6663 22.1668V10.5001Z" fill="#00A296"/>
</g>
<defs>
<clipPath id="clip0_2455_3133">
<rect y="0.5" width="32" height="32" rx="16" fill="white"/>
</clipPath>
</defs>
</svg>
